HIERARCHY
ROOT Hips
{
    OFFSET 0.000000 0.000000 0.000000
    CHANNELS 6 Xposition Yposition Zposition Zrotation Xrotation Yrotation
    JOINT Spine
    {
        OFFSET -0.000000 7.755141 0.000000
        CHANNELS 3 Zrotation Xrotation Yrotation
        JOINT Spine1
        {
            OFFSET -0.000000 20.093737 0.000000
            CHANNELS 3 Zrotation Xrotation Yrotation
            JOINT Neck
            {
                OFFSET -0.000000 21.985235 0.000000
                CHANNELS 3 Zrotation Xrotation Yrotation
                JOINT Head
                {
                    OFFSET -0.000000 14.659108 1.891498
                    CHANNELS 3 Zrotation Xrotation Yrotation
                    End Site
                    {
                        OFFSET -0.000000 18.914978 0.000000
                    }
                }
            }
            JOINT LeftShoulder
            {
                OFFSET 3.789246 18.853123 -0.208244
                CHANNELS 3 Zrotation Xrotation Yrotation
                JOINT LeftArm
                {
                    OFFSET 9.468541 0.000000 0.000000
                    CHANNELS 3 Zrotation Xrotation Yrotation
                    JOINT LeftForeArm
                    {
                        OFFSET 31.465202 0.000000 0.000000
                        CHANNELS 3 Zrotation Xrotation Yrotation
                        JOINT LeftHand
                        {
                            OFFSET 26.964474 0.000000 0.000000
                            CHANNELS 3 Zrotation Xrotation Yrotation
                            End Site
                            {
                                OFFSET 14.186234 0.000000 0.000000
                            }
                        }
                    }
                }
            }
            JOINT RightShoulder
            {
                OFFSET -3.772747 18.853123 -0.208244
                CHANNELS 3 Zrotation Xrotation Yrotation
                JOINT RightArm
                {
                    OFFSET -9.468541 0.000000 0.000000
                    CHANNELS 3 Zrotation Xrotation Yrotation
                    JOINT RightForeArm
                    {
                        OFFSET -31.465202 0.000000 0.000000
                        CHANNELS 3 Zrotation Xrotation Yrotation
                        JOINT RightHand
                        {
                            OFFSET -26.964474 0.000000 0.000000
                            CHANNELS 3 Zrotation Xrotation Yrotation
                            End Site
                            {
                                OFFSET -14.186234 0.000000 0.000000
                            }
                        }
                    }
                }
            }
        }
    }
    JOINT LeftUpLeg
    {
        OFFSET 9.457489 0.000000 0.000000
        CHANNELS 3 Zrotation Xrotation Yrotation
        JOINT LeftLeg
        {
            OFFSET -0.000000 -40.941395 0.000000
            CHANNELS 3 Zrotation Xrotation Yrotation
            JOINT LeftFoot
            {
                OFFSET -0.000000 -37.782906 0.000000
                CHANNELS 3 Zrotation Xrotation Yrotation
                JOINT LeftToeBase
                {
                    OFFSET -0.000000 -6.147367 14.186234
                    CHANNELS 3 Zrotation Xrotation Yrotation
                    End Site
                    {
                        OFFSET -0.000000 0.000000 3.782995
                    }
                }
            }
        }
    }
    JOINT RightUpLeg
    {
        OFFSET -9.457489 0.000000 0.000000
        CHANNELS 3 Zrotation Xrotation Yrotation
        JOINT RightLeg
        {
            OFFSET -0.000000 -40.941395 0.000000
            CHANNELS 3 Zrotation Xrotation Yrotation
            JOINT RightFoot
            {
                OFFSET -0.000000 -37.782906 0.000000
                CHANNELS 3 Zrotation Xrotation Yrotation
                JOINT RightToeBase
                {
                    OFFSET -0.000000 -6.147367 14.186234
                    CHANNELS 3 Zrotation Xrotation Yrotation
                    End Site
                    {
                        OFFSET -0.000000 0.000000 3.782995
                    }
                }
            }
        }
    }
}
MOTION
Frames:    11
Frame Time:    0.010000
41.360962    88.798630    61.604847    -2.703279    -3.075385    -7.342289    -2.640208    -8.650141    -3.756318    6.617714    3.261063    -1.374597    1.314349    15.166539    -1.321384    2.440404    4.822520    -1.430605    -1.742889    4.319272    -1.759420    -74.877037    46.918373    -4.814571    9.903769    -15.238330    -12.253154    -31.012527    -15.224853    3.789852    -2.946751    2.647880    -9.662176    41.378975    3.520655    14.073106    -8.194270    -69.478020    47.691971    -4.738842    -68.025925    -9.116099    8.304922    0.791040    9.274994    -1.848876    22.249279    1.555599    -2.498617    -15.619369    19.940304    0.000000    0.000000    0.000000    0.345114    5.905407    4.210416    3.275505    4.553017    5.420133    -0.951380    -9.547954    -9.275599    0.000000    0.000000    0.000000    
41.382175    88.788322    61.607170    -2.715392    -3.049658    -7.430491    -2.650478    -8.639099    -3.781906    6.646979    3.232729    -1.382095    1.274982    15.087453    -1.244759    2.395911    4.945863    -1.357781    -1.826774    4.286199    -1.670300    -74.829422    47.126434    -4.805383    9.972934    -15.308798    -12.191180    -31.092768    -15.265269    3.674989    -3.006065    2.687848    -9.647950    41.569439    2.672849    14.014985    -6.252963    -68.750839    49.430676    -4.548326    -67.548325    -8.769943    8.312949    0.751321    9.291189    -1.870084    22.342638    1.549664    -2.742958    -15.904595    19.906023    0.000000    0.000000    0.000000    0.327919    5.870645    4.221014    3.288039    4.559207    5.462090    -0.965593    -9.564053    -9.238228    0.000000    0.000000    0.000000    
41.399002    88.789627    61.608959    -2.750508    -3.043106    -7.498809    -2.693557    -8.611211    -3.792397    6.713366    3.171488    -1.382814    2.312171    14.899653    -1.420333    0.696756    5.274521    -0.978295    -1.880683    4.318728    -1.736200    -74.798737    46.917366    -4.742774    9.929342    -15.164408    -12.322748    -31.340061    -15.127138    3.692127    -3.009998    2.722571    -9.629628    41.581177    2.567994    13.991872    -5.703220    -68.631622    49.902599    -5.293536    -67.475853    -9.407817    8.336935    0.779367    9.296782    -1.889291    22.430048    1.527165    -3.009667    -16.249662    19.995447    0.000000    0.000000    0.000000    0.350669    5.864159    4.196408    3.272930    4.543378    5.587694    -0.934735    -9.522117    -9.283902    0.000000    0.000000    0.000000    
41.464405    88.769806    61.607933    -2.737365    -3.096996    -7.699309    -2.603261    -8.534645    -3.674389    6.571116    3.179269    -1.343021    1.162317    15.090504    -1.149738    2.538022    4.929287    -1.313507    -1.859214    4.228964    -1.755266    -74.868629    47.053291    -4.655818    9.971142    -15.314657    -12.307591    -31.115427    -15.274806    3.721963    -3.038693    2.657715    -9.709094    41.655941    2.593865    14.023128    -5.278294    -68.499710    50.256615    -5.509892    -67.395401    -9.598940    8.238771    0.787198    9.386958    -1.876081    22.493881    1.581385    -2.675266    -15.955697    20.368631    0.000000    0.000000    0.000000    0.230876    5.850682    4.176030    3.324611    4.630773    5.781162    -0.957639    -9.601887    -9.240938    0.000000    0.000000    0.000000    
41.445740    88.782036    61.623264    -2.782376    -3.014954    -7.618560    -2.703125    -8.739792    -3.833189    6.656925    3.381021    -1.406070    1.049105    14.973514    -0.946955    2.686743    4.952855    -1.161088    -1.965827    4.408409    -1.753337    -74.536705    47.123135    -4.918194    10.071607    -15.403476    -12.345679    -31.175489    -15.343841    3.692041    -3.035846    2.685177    -9.701337    42.241360    -1.774261    13.576655    2.638613    -64.718864    57.116959    -5.625595    -65.144928    -8.728138    8.347611    0.716758    9.284313    -1.936279    22.581974    1.504429    -2.991282    -16.339813    20.153870    0.000000    0.000000    0.000000    0.337415    5.839986    4.128319    3.265688    4.535045    5.650419    -0.905277    -9.517837    -9.165607    0.000000    0.000000    0.000000    
41.470512    88.780235    61.631550    -2.811021    -3.009127    -7.663051    -2.688125    -8.785592    -3.864731    6.540980    3.458281    -1.417599    1.152127    14.974940    -0.941899    2.663779    4.881094    -1.123043    -1.852303    4.340490    -1.753597    -74.633354    46.980499    -4.833950    10.030376    -15.334607    -12.405725    -31.048161    -15.278869    3.725577    -2.851475    2.674692    -9.610681    42.148239    -1.542968    13.540165    2.650903    -64.888565    57.212860    -6.418139    -65.272667    -9.491875    8.347489    0.692515    9.276234    -1.961414    22.622158    1.418803    -2.410038    -15.905589    20.835709    0.000000    0.000000    0.000000    0.346163    5.842997    4.083792    3.254333    4.523074    5.644779    -0.876638    -9.500225    -9.073559    0.000000    0.000000    0.000000    
41.503166    88.778542    61.640919    -2.831956    -3.013184    -7.706825    -2.720808    -8.717490    -3.862558    6.622569    3.367332    -1.413692    1.032607    15.159348    -1.043871    2.641998    4.586835    -1.248033    -1.871218    4.103366    -1.784732    -74.952461    47.100147    -4.427625    10.063043    -15.339862    -12.400864    -31.158045    -15.253393    3.608975    -2.954453    2.785683    -9.693920    42.210312    -1.464154    13.643393    2.844076    -64.859596    57.397541    -6.476480    -65.287590    -9.535575    8.353493    0.700206    9.276687    -1.933837    22.675684    1.514333    -3.001259    -16.389990    20.202429    0.000000    0.000000    0.000000    0.339172    5.846741    4.018900    3.247343    4.529607    5.674119    -0.853060    -9.504711    -9.003957    0.000000    0.000000    0.000000    
41.540398    88.778351    61.648579    -2.850662    -3.006993    -7.753977    -2.740572    -8.712360    -3.828522    6.608525    3.351598    -1.400629    1.109681    15.034981    -0.985118    2.516421    4.709496    -1.149520    -1.802666    4.161969    -1.808989    -74.879501    46.895180    -4.538369    9.897676    -15.238682    -12.497130    -31.059782    -15.176494    3.676814    -2.904936    2.784829    -9.695928    41.518810    3.219574    14.152958    -5.042729    -68.738815    50.492016    -6.505273    -67.632980    -10.453933    8.344795    0.691527    9.265657    -1.939146    22.715298    1.511204    -2.963560    -16.432343    20.251366    0.000000    0.000000    0.000000    0.320762    5.833680    3.964046    3.255619    4.543910    5.726598    -0.798223    -9.492505    -8.963299    0.000000    0.000000    0.000000    
41.574017    88.776192    61.656178    -2.868090    -3.007126    -7.773897    -2.761742    -8.703625    -3.823879    6.612294    3.363929    -1.399354    1.040131    14.980396    -0.950677    2.537644    4.694831    -1.136140    -1.897680    4.256153    -1.825647    -74.682281    46.934467    -4.654333    9.962645    -15.282029    -12.529488    -31.122408    -15.209208    3.665337    -2.940557    2.790633    -9.708514    41.543488    3.306561    14.130964    -5.022965    -68.617432    50.519203    -5.669006    -67.554932    -9.560787    8.336584    0.680553    9.243874    -1.947415    22.744804    1.514202    -3.030165    -16.487513    20.302980    0.000000    0.000000    0.000000    0.312485    5.834237    3.909687    3.255533    4.551057    5.753448    -0.766107    -9.495868    -8.932561    0.000000    0.000000    0.000000    
41.614662    88.779274    61.663212    -2.879532    -3.009281    -7.791592    -2.761324    -8.712313    -3.840140    6.555562    3.403454    -1.405332    1.041593    14.965056    -0.913575    2.479166    4.612088    -1.085913    -1.894630    4.206290    -1.826330    -74.668625    46.857311    -4.597812    9.907913    -15.278256    -12.600294    -31.047920    -15.217506    3.720136    -2.880757    2.804924    -9.658404    41.407215    3.887314    14.185664    -5.505109    -69.012184    50.202557    -6.827421    -67.828461    -10.642914    8.313432    0.670791    9.219424    -1.955898    22.748766    1.550151    -2.361197    -15.995849    20.357336    0.000000    0.000000    0.000000    0.283668    5.829233    3.882605    3.268062    4.569375    5.796572    -0.733440    -9.487088    -8.928081    0.000000    0.000000    0.000000    
41.670341    88.774780    61.653519    -2.884444    -3.001515    -7.862200    -2.705527    -8.647449    -3.793734    6.462182    3.307092    -1.383548    1.052019    14.987361    -0.869109    2.369378    4.513205    -1.016583    -1.907736    4.217770    -1.796982    -74.613098    46.962311    -4.583481    9.922144    -15.338287    -12.634159    -31.015276    -15.280118    3.750221    -2.900921    2.811714    -9.598278    41.440487    3.890997    14.093372    -5.195693    -68.822479    50.582642    -6.327104    -67.704453    -10.132073    8.271070    0.657482    9.263167    -1.926979    22.770464    1.566504    -2.717651    -16.292078    20.276649    0.000000    0.000000    0.000000    0.235695    5.766827    3.867707    3.283527    4.648005    5.883801    -0.751128    -9.530538    -8.939739    0.000000    0.000000    0.000000    
